<svg width="211" height="190" viewBox="0 0 211 190" fill="none" xmlns="http://www.w3.org/2000/svg">
<ellipse cx="113" cy="95" rx="98" ry="95" fill="#D8E3FF"/>
<path d="M91.68 127.92C91.6 129.92 90.28 131.32 87.72 132.12L83.16 129.96H81.84L80.28 128.76H78.36L76.92 126.36L75.72 125.76L74.16 123L72 120.72V119.76L71.04 118.92L70.8 117L69.24 115.56L66.72 109.92L65.64 108.6L65.16 105.24L63.6 103.2L61.08 102.84L58.32 104.4L57.72 103.8L55.8 105L55.2 103.68C54.8 103.76 54.2 103.8 53.4 103.8C52.52 103.8 51.88 103.76 51.48 103.68H50.52L48 105L45.24 104.64H44.76L42.84 105.72L41.28 105.12C39.76 105.12 38.64 104.96 37.92 104.64H37.32L34.2 106.08L33 104.76L30.84 104.16L30.36 104.52C28.6 106.84 27.32 108.48 26.52 109.44L24.6 109.92C21.56 114.32 19.64 116.68 18.84 117L18.36 117.12L14.52 121.8H14.04L11.64 125.52L7.08 128.04C6.28 128.2 5.64 128.28 5.16 128.28C3.64 128.28 2.2 127.72 0.84 126.6L2.28 123.6V121.8L2.76 121.2L3 118.8L6.72 118.32L7.68 117.72C8.64 117.16 9.2 116.32 9.36 115.2C10.8 114.8 11.68 114 12 112.8C14.16 111.68 15.56 109.92 16.2 107.52L18.24 106.8L21.24 102.36C20.6 101.48 20.12 100.36 19.8 99L22.32 96.96V94.68L27 95.04L28.2 94.44C28.6 93.08 29.4 92.12 30.6 91.56L30.84 89.28L33.36 87.96C33.6 87.8 34.04 87.6 34.68 87.36V86.64C34.68 85.92 34.84 85.28 35.16 84.72C36.84 83.52 37.72 81.88 37.8 79.8L39.48 79.44L40.08 78.36L40.92 78.24L43.2 73.92L43.8 74.16L44.76 73.68V70.44H45.6C47.6 68.28 48.6 66.88 48.6 66.24L49.2 65.76L48.6 63.96C50.52 61.64 52.08 60.44 53.28 60.36L55.56 58.44L58.2 61.08L61.56 62.88L61.92 66C62.32 66.48 62.64 66.96 62.88 67.44C64 68.8 64.64 70.2 64.8 71.64L65.52 74.64L67.32 77.28L68.4 81.24L68.64 83.16L70.8 85.8L70.32 86.64L71.28 87.48V89.88L71.52 91.68C71.28 92.88 71.16 93.32 71.16 93L71.76 93.6C71.76 93.6 72 93.92 72.48 94.56C73.52 94.48 74.28 94.36 74.76 94.2H78.36C79 94.36 79.48 94.44 79.8 94.44C80.28 94.44 80.76 94.28 81.24 93.96C81.8 93.56 82.64 93.36 83.76 93.36C84.56 93.36 85.76 93.76 87.36 94.56L90.96 94.8C91.12 95.44 91.2 95.92 91.2 96.24C91.2 97.44 90.6 98.36 89.4 99L87.6 98.4L84.24 100.8L81.48 100.44L80.28 101.04L77.64 101.28V100.8L74.52 101.52L74.4 102.24L74.64 105L76.2 107.16L76.44 109.32L79.2 113.16L78.96 114.48L80.04 115.56L82.92 120L84.96 122.04L85.44 123L87.6 124.08L88.44 126L91.68 127.92ZM62.04 95.52H61.92L60.6 94.2L62.04 93C61.4 92.44 61.08 91.6 61.08 90.48L60.24 90L59.64 85.08L58.2 83.04L57.84 81L57.6 80.52H56.76L56.4 76.2L55.32 74.64L54.72 74.4L54.36 73.92L53.88 74.76L51 78.36L50.04 80.4L47.64 82.56L47.16 84.72L44.4 85.92C44 88.32 42.8 90.04 40.8 91.08L39.96 93.48L38.4 95.04H39.48C40.92 95.52 42.12 95.76 43.08 95.76H43.56C44.04 95.52 44.52 95.4 45 95.4C45.56 95.4 46.2 95.56 46.92 95.88L47.4 96C47.88 95.92 48.64 95.88 49.68 95.88C50.96 95.88 51.92 95.92 52.56 96L56.76 95.52L59.52 96.96C60.88 96.4 61.68 95.84 61.92 95.28C61.92 95.36 61.96 95.4 62.04 95.4C62.04 95.4 62.04 95.44 62.04 95.52ZM136.602 82.92C136.602 83.64 135.882 84.32 134.442 84.96C134.122 85.36 133.522 85.72 132.642 86.04C131.522 86.52 130.722 86.92 130.242 87.24L127.722 86.4C126.442 87.36 124.802 87.84 122.802 87.84L121.362 87.48L120.282 88.44H117.042L115.002 89.76C114.122 89.44 113.282 89.28 112.482 89.28C112.242 89.44 111.682 89.6 110.802 89.76C110.402 89.76 109.962 89.64 109.482 89.4L109.122 93.96L109.242 97.32L108.882 101.52L109.122 106.08L109.482 108.24V109.92L111.162 113.52C110.922 113.76 110.802 114.04 110.802 114.36C110.802 114.92 111.682 115.36 113.442 115.68L113.682 117.12L114.522 117.48L115.962 118.44L116.922 119.16C117.722 119 118.282 118.92 118.602 118.92C119.322 118.92 120.042 119.04 120.762 119.28C121.082 119.12 121.762 118.56 122.802 117.6C123.522 116.96 124.202 116.64 124.842 116.64C124.922 116.64 125.042 116.64 125.202 116.64C125.362 116.72 125.482 116.76 125.562 116.76C126.282 115.24 127.562 114.24 129.402 113.76C131.082 113.76 132.482 114.28 133.602 115.32V116.16C133.602 118.88 132.642 120.6 130.722 121.32C130.002 123 128.482 124.08 126.162 124.56L124.722 125.88H123.162L120.402 126.6C119.762 126.76 118.842 126.84 117.642 126.84C117.002 126.84 116.322 126.68 115.602 126.36H114.042L109.842 124.08L108.762 123.72L106.242 120.36L104.802 118.8L102.162 112.8L101.202 107.16L101.442 105.72L100.482 104.4L101.082 102.72L100.482 100.08L101.322 99.24L101.562 97.68L101.202 96.24L101.442 94.08L100.962 92.16L101.562 91.56V89.64L100.722 89.28L98.4422 89.76L96.2822 88.2H95.9222C93.5222 88.2 92.3222 86.92 92.3222 84.36V84L90.8822 81.72L93.1622 79.56L96.1622 80.04L97.7222 79.8L100.002 80.4H102.522V78L100.962 74.64L102.522 73.8L101.922 72L102.042 68.28L101.082 66.72C100.522 65.84 100.242 65.04 100.242 64.32C100.242 63.44 100.442 62.72 100.842 62.16L101.202 60.48L102.162 59.52C104.322 59.12 105.762 58.92 106.482 58.92C109.042 58.92 110.442 60.08 110.682 62.4L110.322 63C110.802 63.72 111.042 64.4 111.042 65.04C111.042 65.12 111.002 65.32 110.922 65.64L110.682 66.36L110.562 67.2L111.042 68.76L110.922 69.36L111.162 71.04L110.082 72.48L110.682 74.88L110.202 77.76L111.162 78.84L110.202 81L113.922 80.52L120.522 81.12L125.802 80.28L127.602 80.4L128.202 80.28H132.882C135.362 80.28 136.602 81.16 136.602 82.92Z" fill="#504B8E"/>
</svg>
